<svg width="958" height="760" viewBox="0 0 958 760" fill="none" xmlns="http://www.w3.org/2000/svg">
<path d="M34.2856 182.286C34.2856 136.224 34.2856 113.193 41.8107 95.026C51.8442 70.8035 71.0892 51.5585 95.3116 41.525C113.479 34 136.51 34 182.571 34H775.714C821.777 34 844.806 34 862.975 41.525C887.195 51.5585 906.443 70.8035 916.477 95.026C924 113.193 924 136.224 924 182.286V577.714C924 623.777 924 646.806 916.477 664.975C906.443 689.195 887.195 708.443 862.975 718.477C844.806 726 821.777 726 775.714 726H182.571C136.51 726 113.479 726 95.3116 718.477C71.0892 708.443 51.8442 689.195 41.8107 664.975C34.2856 646.806 34.2856 623.777 34.2856 577.714V182.286Z" stroke="white" stroke-width="66.6667" stroke-linejoin="round"/>
<path d="M83.7141 83.429L414.045 372.467C451.314 405.08 506.971 405.08 544.24 372.467L874.571 83.429" stroke="white" stroke-width="66.6667" stroke-linecap="round" stroke-linejoin="round"/>
</svg>
